<svg xmlns="http://www.w3.org/2000/svg" xmlns:xlink="http://www.w3.org/1999/xlink" id="Layer_1" x="0" y="0" version="1.1" viewBox="0 0 882 638" style="enable-background:new 0 0 882 638" xml:space="preserve"><style type="text/css">.st0{display:none}.st1{display:inline;opacity:.5;fill:none;stroke:#fff;stroke-miterlimit:10}.st2{opacity:.5;fill:#fff}</style><image style="overflow:visible" width="864" height="624" transform="matrix(0.9999 0 0 0.9999 9.054 7.039)" xlink:href="4FE91A56.jpg"/><g id="Dividing_Lines" class="st0"><line x1="9.1" x2="9.1" y1="7" y2="631" class="st1"/><line x1="57.1" x2="57.1" y1="7" y2="631" class="st1"/><line x1="105.1" x2="105.1" y1="7" y2="631" class="st1"/><line x1="153.1" x2="153.1" y1="7" y2="631" class="st1"/><line x1="201.1" x2="201.1" y1="7" y2="631" class="st1"/><line x1="249.1" x2="249.1" y1="7" y2="631" class="st1"/><line x1="297.1" x2="297.1" y1="7" y2="631" class="st1"/><line x1="345.1" x2="345.1" y1="7" y2="631" class="st1"/><line x1="393.1" x2="393.1" y1="7" y2="631" class="st1"/><line x1="441.1" x2="441.1" y1="7" y2="631" class="st1"/><line x1="489.1" x2="489.1" y1="7" y2="631" class="st1"/><line x1="537.1" x2="537.1" y1="7" y2="631" class="st1"/><line x1="585.1" x2="585.1" y1="7" y2="631" class="st1"/><line x1="633.1" x2="633.1" y1="7" y2="631" class="st1"/><line x1="681.1" x2="681.1" y1="7" y2="631" class="st1"/><line x1="729.1" x2="729.1" y1="7" y2="631" class="st1"/><line x1="777.1" x2="777.1" y1="7" y2="631" class="st1"/><line x1="825.1" x2="825.1" y1="7" y2="631" class="st1"/><line x1="873.1" x2="873.1" y1="7" y2="631" class="st1"/><line x1="873.1" x2="9.1" y1="7" y2="7" class="st1"/><line x1="873.1" x2="9.1" y1="55" y2="55" class="st1"/><line x1="873.1" x2="9.1" y1="103" y2="103" class="st1"/><line x1="873.1" x2="9.1" y1="151" y2="151" class="st1"/><line x1="873.1" x2="9.1" y1="199" y2="199" class="st1"/><line x1="873.1" x2="9.1" y1="247" y2="247" class="st1"/><line x1="873.1" x2="9.1" y1="295" y2="295" class="st1"/><line x1="873.1" x2="9.1" y1="343" y2="343" class="st1"/><line x1="873.1" x2="9.1" y1="391" y2="391" class="st1"/><line x1="873.1" x2="9.1" y1="439" y2="439" class="st1"/><line x1="873.1" x2="9.1" y1="487" y2="487" class="st1"/><line x1="873.1" x2="9.1" y1="535" y2="535" class="st1"/><line x1="873.1" x2="9.1" y1="583" y2="583" class="st1"/><line x1="873.1" x2="9.1" y1="631" y2="631" class="st1"/></g><path d="M873.6,7h-0.5V6.5H9.1V7H8.6V631h0.5v0.6h864V631h0.5V7z M345.6,295.5h47v47h-47V295.5z M344.6,342.5h-47v-47	h47V342.5z M393.6,295.5h47v47h-47V295.5z M441.6,295.5h47v47h-47V295.5z M489.6,295.5h47v47h-47V295.5z M537.6,295.5h47v47h-47	V295.5z M537.6,294.5v-47h47v47H537.6z M536.6,294.5h-47v-47h47V294.5z M488.6,294.5h-47v-47h47V294.5z M440.6,294.5h-47v-47h47	V294.5z M392.6,294.5h-47v-47h47V294.5z M344.6,294.5h-47v-47h47V294.5z M296.6,294.5h-47v-47h47V294.5z M296.6,295.5v47h-47v-47	H296.6z M296.6,343.5v47h-47v-47H296.6z M297.6,343.5h47v47h-47V343.5z M345.6,343.5h47v47h-47V343.5z M393.6,343.5h47v47h-47V343.5	z M441.6,343.5h47v47h-47V343.5z M489.6,343.5h47v47h-47V343.5z M537.6,343.5h47v47h-47V343.5z M585.6,343.5h47v47h-47V343.5z M585.6,342.5v-47h47v47H585.6z M585.6,294.5v-47h47v47H585.6z M585.6,246.5v-47h47v47H585.6z M584.6,246.5h-47v-47h47V246.5z M536.6,246.5h-47v-47h47V246.5z M488.6,246.5h-47v-47h47V246.5z M440.6,246.5h-47v-47h47V246.5z M392.6,246.5h-47v-47h47V246.5z M344.6,246.5h-47v-47h47V246.5z M296.6,246.5h-47v-47h47V246.5z M248.6,246.5h-47v-47h47V246.5z M248.6,247.5v47h-47v-47H248.6z M248.6,295.5v47h-47v-47H248.6z M248.6,343.5v47h-47v-47H248.6z M248.6,391.5v47h-47v-47H248.6z M249.6,391.5h47v47h-47V391.5z M297.6,391.5h47v47h-47V391.5z M345.6,391.5h47v47h-47V391.5z M393.6,391.5h47v47h-47V391.5z M441.6,391.5h47v47h-47V391.5z M489.6,391.5h47v47h-47V391.5z M537.6,391.5h47v47h-47V391.5z M585.6,391.5h47v47h-47V391.5z M633.6,391.5h47v47h-47V391.5z M633.6,390.5v-47h47v47H633.6z M633.6,342.5v-47h47v47H633.6z M633.6,294.5v-47h47v47H633.6z M633.6,246.5v-47h47v47H633.6z M633.6,198.5v-47h47v47H633.6z M632.6,198.5h-47v-47h47V198.5z M584.6,198.5h-47v-47h47V198.5z M536.6,198.5h-47v-47h47V198.5z M488.6,198.5h-47v-47h47V198.5z M440.6,198.5h-47v-47h47V198.5z M392.6,198.5h-47v-47h47V198.5z M344.6,198.5h-47v-47h47V198.5z M296.6,198.5h-47v-47h47V198.5z M248.6,198.5h-47v-47h47V198.5z M200.6,198.5h-47v-47h47V198.5z M200.6,199.5v47h-47v-47H200.6z M200.6,247.5v47h-47v-47H200.6z M200.6,295.5v47h-47v-47H200.6z M200.6,343.5v47h-47v-47H200.6z M200.6,391.5v47h-47v-47H200.6z M200.6,439.5v47h-47v-47H200.6z M201.6,439.5h47v47h-47V439.5z M249.6,439.5h47v47h-47V439.5z M297.6,439.5h47v47h-47V439.5z M345.6,439.5h47v47h-47V439.5z M393.6,439.5h47v47h-47V439.5z M441.6,439.5h47v47h-47V439.5z M489.6,439.5h47v47h-47V439.5z M537.6,439.5h47v47h-47V439.5z M585.6,439.5h47v47h-47V439.5z M633.6,439.5h47v47h-47V439.5z M681.6,439.5h47v47h-47V439.5z M681.6,438.5v-47h47v47H681.6z M681.6,390.5v-47h47v47H681.6z M681.6,342.5v-47h47v47H681.6z M681.6,294.5v-47h47v47H681.6z M681.6,246.5v-47h47v47H681.6z M681.6,198.5v-47h47v47H681.6z M681.6,150.5v-47h47v47H681.6z M680.6,150.5h-47v-47h47V150.5z M632.6,150.5h-47v-47h47V150.5z M584.6,150.5h-47v-47h47V150.5z M536.6,150.5h-47v-47h47V150.5z M488.6,150.5h-47v-47h47V150.5z M440.6,150.5h-47v-47h47V150.5z M392.6,150.5h-47v-47h47V150.5z M344.6,150.5h-47v-47h47V150.5z M296.6,150.5h-47v-47h47V150.5z M248.6,150.5h-47v-47h47V150.5z M200.6,150.5h-47v-47h47V150.5z M152.6,150.5h-47v-47h47V150.5z M152.6,151.5v47h-47v-47H152.6z M152.6,199.5v47h-47v-47H152.6z M152.6,247.5v47h-47v-47H152.6z M152.6,295.5v47h-47v-47H152.6z M152.6,343.5v47h-47v-47H152.6z M152.6,391.5v47h-47v-47H152.6z M152.6,439.5v47h-47v-47H152.6z M152.6,487.5v47h-47v-47H152.6z M153.6,487.5h47v47h-47V487.5z M201.6,487.5h47v47h-47V487.5z M249.6,487.5h47v47h-47V487.5z M297.6,487.5h47v47h-47V487.5z M345.6,487.5h47v47h-47V487.5z M393.6,487.5h47v47h-47V487.5z M441.6,487.5h47v47h-47V487.5z M489.6,487.5h47v47h-47V487.5z M537.6,487.5h47v47h-47V487.5z M585.6,487.5h47v47h-47V487.5z M633.6,487.5h47v47h-47V487.5z M681.6,487.5h47v47h-47V487.5z M729.6,487.5h47v47h-47V487.5z M729.6,486.5v-47h47v47H729.6z M729.6,438.5v-47h47v47H729.6z M729.6,390.5v-47h47v47H729.6z M729.6,342.5v-47h47v47H729.6z M729.6,294.5v-47h47v47H729.6z M729.6,246.5v-47h47v47H729.6z M729.6,198.5v-47h47v47H729.6z M729.6,150.5v-47h47v47H729.6z M729.6,102.5v-47h47v47H729.6z M728.6,102.5h-47v-47h47V102.5z M680.6,102.5h-47v-47h47V102.5z M632.6,102.5h-47v-47h47V102.5z M584.6,102.5h-47v-47h47V102.5z M536.6,102.5h-47v-47h47V102.5z M488.6,102.5h-47v-47h47V102.5z M440.6,102.5h-47v-47h47V102.5z M392.6,102.5h-47v-47h47V102.5z M344.6,102.5h-47v-47h47V102.5z M296.6,102.5h-47v-47h47V102.5z M248.6,102.5h-47v-47h47V102.5z M200.6,102.5h-47v-47h47V102.5z M152.6,102.5h-47v-47h47V102.5z M104.6,102.5h-47v-47h47V102.5z M104.6,103.5v47h-47v-47H104.6z M104.6,151.5v47h-47v-47H104.6z M104.6,199.5v47h-47v-47H104.6z M104.6,247.5v47h-47v-47H104.6z M104.6,295.5v47h-47v-47H104.6z M104.6,343.5v47h-47v-47H104.6z M104.6,391.5v47h-47v-47H104.6z M104.6,439.5v47h-47v-47H104.6z M104.6,487.5v47h-47v-47H104.6z M104.6,535.5v47h-47v-47H104.6z M105.6,535.5h47v47h-47V535.5z M153.6,535.5h47v47h-47V535.5z M201.6,535.5h47v47h-47V535.5z M249.6,535.5h47v47h-47V535.5z M297.6,535.5h47v47h-47V535.5z M345.6,535.5h47v47h-47V535.5z M393.6,535.5h47v47h-47V535.5z M441.6,535.5h47v47h-47V535.5z M489.6,535.5h47v47h-47V535.5z M537.6,535.5h47v47h-47V535.5z M585.6,535.5h47v47h-47V535.5z M633.6,535.5h47v47h-47V535.5z M681.6,535.5h47v47h-47V535.5z M729.6,535.5h47v47h-47V535.5z M777.6,535.5h47v47h-47V535.5z M777.6,534.5v-47h47v47H777.6z M777.6,486.5v-47h47v47H777.6z M777.6,438.5v-47h47v47H777.6z M777.6,390.5v-47h47v47H777.6z M777.6,342.5v-47h47v47H777.6z M777.6,294.5v-47h47v47H777.6z M777.6,246.5v-47h47v47H777.6z M777.6,198.5v-47h47v47H777.6z M777.6,150.5v-47h47v47H777.6z M777.6,102.5v-47h47v47H777.6z M777.6,54.5v-47h47v47H777.6z M776.6,54.5h-47v-47h47V54.5z M728.6,54.5h-47v-47h47V54.5z M680.6,54.5h-47v-47h47V54.5z M632.6,54.5h-47v-47h47V54.5z M584.6,54.5h-47v-47h47V54.5z M536.6,54.5h-47v-47h47V54.5z M488.6,54.5h-47v-47h47V54.5z M440.6,54.5h-47v-47h47V54.5z M392.6,54.5h-47v-47h47V54.5z M344.6,54.5h-47v-47h47V54.5z M296.6,54.5h-47v-47h47V54.5z M248.6,54.5h-47v-47h47V54.5z M200.6,54.5h-47v-47h47V54.5z M152.6,54.5h-47v-47h47V54.5z M104.6,54.5h-47v-47h47V54.5z M56.6,54.5h-47v-47h47V54.5z M56.6,55.5v47h-47v-47H56.6z M56.6,103.5	v47h-47v-47H56.6z M56.6,151.5v47h-47v-47H56.6z M56.6,199.5v47h-47v-47H56.6z M56.6,247.5v47h-47v-47H56.6z M56.6,295.5v47h-47v-47	H56.6z M56.6,343.5v47h-47v-47H56.6z M56.6,391.5v47h-47v-47H56.6z M56.6,439.5v47h-47v-47H56.6z M56.6,487.5v47h-47v-47H56.6z M56.6,535.5v47h-47v-47H56.6z M56.6,583.5v47h-47v-47H56.6z M57.6,583.5h47v47h-47V583.5z M105.6,583.5h47v47h-47V583.5z M153.6,583.5h47v47h-47V583.5z M201.6,583.5h47v47h-47V583.5z M249.6,583.5h47v47h-47V583.5z M297.6,583.5h47v47h-47V583.5z M345.6,583.5h47v47h-47V583.5z M393.6,583.5h47v47h-47V583.5z M441.6,583.5h47v47h-47V583.5z M489.6,583.5h47v47h-47V583.5z M537.6,583.5h47v47h-47V583.5z M585.6,583.5h47v47h-47V583.5z M633.6,583.5h47v47h-47V583.5z M681.6,583.5h47v47h-47V583.5z M729.6,583.5h47v47h-47V583.5z M777.6,583.5h47v47h-47V583.5z M825.6,583.5h47v47h-47V583.5z M825.6,582.5v-47h47v47H825.6z M825.6,534.5v-47h47v47H825.6z M825.6,486.5v-47h47v47H825.6z M825.6,438.5v-47h47v47H825.6z M825.6,390.5v-47h47v47H825.6z M825.6,342.5v-47h47v47H825.6z M825.6,294.5v-47h47v47H825.6z M825.6,246.5v-47h47v47H825.6z M825.6,198.5v-47h47v47H825.6z M825.6,150.5v-47h47v47H825.6z M825.6,102.5v-47h47v47H825.6z M825.6,54.5v-47h47v47H825.6z" class="st2"/></svg>